# Blender v2.71 (sub 0) OBJ File: 'untitled.blend'
# www.blender.org
mtllib board5.mtl
v -3.281958 -0.074345 -1.907385
v -3.467363 -0.074345 -1.397989
v -3.459765 -0.074345 -1.395224
v -3.274360 -0.074345 -1.904619
v -3.281958 0.620420 -1.907385
v -3.467363 0.620420 -1.397989
v -3.459765 0.620420 -1.395224
v -3.274360 0.620420 -1.904619
vt 0.333333 0.000000
vt 0.666667 0.000000
vt 0.666667 0.333333
vt 0.000000 0.333333
vt 0.333333 0.333333
vt 0.333333 0.666667
vt 0.000000 0.000000
vt 0.666667 0.666667
vt 1.000000 0.000000
vt 1.000000 0.333333
vt 0.333333 1.000000
vt 0.000000 1.000000
vt 0.000000 0.666667
vn 0.939700 0.000000 0.342000
vn 0.342000 0.000000 -0.939700
vn -0.939700 0.000000 -0.342000
vn -0.342100 0.000000 0.939700
vn 0.000000 1.000000 -0.000000
vn 0.000000 -1.000000 0.000000
vn -0.342000 0.000000 0.939700
usemtl None
s off
f 6/1/1 2/2/1 1/3/1
f 7/4/2 3/5/2 2/6/2
f 8/7/3 4/1/3 3/5/3
f 5/3/4 1/8/4 4/6/4
f 1/9/5 2/10/5 3/3/5
f 7/6/6 6/11/6 5/12/6
f 5/5/1 6/1/1 1/3/1
f 6/13/2 7/4/2 2/6/2
f 7/4/3 8/7/3 3/5/3
f 8/5/7 5/3/7 4/6/7
f 4/2/5 1/9/5 3/3/5
f 8/13/6 7/6/6 5/12/6
v -2.529412 -0.347438 -1.353524
v -2.529412 -0.347438 -1.553524
v 4.470589 -0.347438 -1.553524
v 4.470589 -0.347438 -1.353524
v -2.529412 0.452562 -1.353524
v -2.529412 0.452562 -1.553524
v 4.470589 0.452562 -1.553524
v 4.470589 0.452562 -1.353524
v -2.890581 0.133643 -1.286353
v -2.890581 0.133643 -1.329806
v -2.890581 0.307455 -1.286353
v -2.890581 0.307455 -1.329806
vt 0.000000 0.000000
vt 1.000000 0.000000
vt 1.000000 1.000000
vt 0.000000 1.000000
vn -0.799700 -0.600400 0.000000
vn 0.000000 0.000000 -1.000000
vn 1.000000 0.000000 0.000000
vn 0.000000 0.000000 1.000000
vn 0.000000 -1.000000 0.000000
vn 0.000000 1.000000 0.000000
vn -1.000000 0.000000 0.000000
vn -0.526600 0.000000 -0.850100
vn -0.372800 0.927900 0.000000
vn 0.182800 0.000000 0.983100
usemtl None
s off
f 10/14/8 9/15/8 17/16/8
f 15/15/9 11/16/9 10/17/9
f 16/15/10 12/16/10 11/17/10
f 13/15/11 9/16/11 12/17/11
f 10/15/12 11/16/12 12/17/12
f 15/15/13 14/16/13 13/17/13
f 20/17/14 18/14/14 17/15/14
f 10/15/15 18/16/15 20/17/15
f 14/15/16 20/16/16 19/17/16
f 9/14/17 13/15/17 19/16/17
f 18/17/8 10/14/8 17/16/8
f 14/14/9 15/15/9 10/17/9
f 15/14/10 16/15/10 11/17/10
f 16/14/11 13/15/11 12/17/11
f 9/14/12 10/15/12 12/17/12
f 16/14/13 15/15/13 13/17/13
f 19/16/14 20/17/14 17/15/14
f 14/14/15 10/15/15 20/17/15
f 13/14/16 14/15/16 19/17/16
f 17/17/17 9/14/17 19/16/17
v -3.508237 0.728907 -1.899633
v -3.508237 0.728907 2.100367
v 4.491763 0.728907 2.100367
v 4.491763 0.728907 -1.899633
v -3.508237 -0.271093 -1.899633
v -3.508237 -0.271093 2.100367
v 4.491763 -0.271093 2.100367
v 4.491763 -0.271093 -1.899633
v -3.452101 -0.046801 -1.871565
v -3.452101 -0.046801 2.072299
v 4.435627 -0.046801 2.072299
v 4.435627 -0.046801 -1.871565
vt 1.000000 0.000000
vt 1.000000 1.000000
vt 0.000000 1.000000
vt 0.000000 0.000000
vn -1.000000 0.000000 0.000000
vn 0.000000 0.000000 1.000000
vn 1.000000 0.000000 0.000000
vn 0.000000 0.000000 -1.000000
vn 0.000000 0.036200 0.999300
vn 0.000000 -1.000000 0.000000
vn 0.000000 1.000000 0.000000
vn -0.997400 0.072200 0.000000
vn 0.000000 0.036200 -0.999300
vn 0.997400 0.072200 0.000000
usemtl None
s off
f 26/18/18 22/19/18 21/20/18
f 27/18/19 23/19/19 22/20/19
f 28/18/20 24/19/20 23/20/20
f 25/18/21 21/19/21 24/20/21
f 21/18/22 29/19/22 32/20/22
f 27/18/23 26/19/23 25/20/23
f 30/20/24 31/21/24 32/18/24
f 24/18/25 32/19/25 31/20/25
f 23/18/26 31/19/26 30/20/26
f 22/18/27 30/19/27 29/20/27
f 25/21/18 26/18/18 21/20/18
f 26/21/19 27/18/19 22/20/19
f 27/21/20 28/18/20 23/20/20
f 28/21/21 25/18/21 24/20/21
f 24/21/22 21/18/22 32/20/22
f 28/21/23 27/18/23 25/20/23
f 29/19/24 30/20/24 32/18/24
f 23/21/25 24/18/25 31/20/25
f 22/21/26 23/18/26 30/20/26
f 21/21/27 22/18/27 29/20/27
