# Blender v2.71 (sub 0) OBJ File: ''
# www.blender.org
mtllib flipper.mtl
v 5.000000 -1.302523 -0.500000
v 5.000000 -1.302523 0.500000
v -5.000000 -1.302523 0.500000
v -4.999998 -1.302523 -0.500000
v 5.000002 1.302523 -0.500000
v 4.999997 1.302523 0.500000
v -5.000002 1.302523 0.500000
v -5.000000 1.302523 -0.500000
vt 0.878199 0.000000
vt 0.878199 1.000000
vt 0.756397 0.999999
vt 0.756397 0.000000
vt 0.634596 1.000000
vt 0.878199 0.260504
vt 1.000000 0.000000
vt 0.317298 1.000000
vt 0.317298 0.000000
vt 0.878199 0.521009
vt 1.000000 0.260504
vt 0.000000 1.000000
vt 0.634596 0.000001
vt 1.000000 0.521009
vt 0.000000 0.000000
vn 0.000000 -1.000000 0.000000
vn 0.000000 1.000000 0.000000
vn 1.000000 -0.000000 0.000000
vn -0.000000 -0.000000 1.000000
vn -1.000000 -0.000000 -0.000000
vn 0.000000 0.000000 -1.000000
usemtl Material
s off
f 2/1/1 3/2/1 4/3/1
f 5/4/2 8/3/2 7/5/2
f 1/6/3 5/1/3 6/7/3
f 2/5/4 6/8/4 7/9/4
f 3/10/5 7/6/5 8/11/5
f 1/9/6 4/8/6 8/12/6
f 1/4/1 2/1/1 4/3/1
f 6/13/2 5/4/2 7/5/2
f 2/11/3 1/6/3 6/7/3
f 3/13/4 2/5/4 7/9/4
f 4/14/5 3/10/5 8/11/5
f 5/15/6 1/9/6 8/12/6
